
        <svg xmlns="http://www.w3.org/2000/svg" xmlns:xlink="http://www.w3.org/1999/xlink" version="1.1" width="3171.4285714285716" 
        height="2114.6916192000053" viewBox="0 0 3171.4285714285716 2114.6916192000053">
			
			<g transform="scale(8.571428571428573) translate(10, 10)">
				<defs id="SvgjsDefs1001"><linearGradient id="SvgjsLinearGradient1013"><stop id="SvgjsStop1014" stop-color="#905e26" offset="0"></stop><stop id="SvgjsStop1015" stop-color="#f5ec9b" offset="0.5"></stop><stop id="SvgjsStop1016" stop-color="#905e26" offset="1"></stop></linearGradient><linearGradient id="SvgjsLinearGradient1017"><stop id="SvgjsStop1018" stop-color="#905e26" offset="0"></stop><stop id="SvgjsStop1019" stop-color="#f5ec9b" offset="0.5"></stop><stop id="SvgjsStop1020" stop-color="#905e26" offset="1"></stop></linearGradient><linearGradient id="SvgjsLinearGradient1021"><stop id="SvgjsStop1022" stop-color="#905e26" offset="0"></stop><stop id="SvgjsStop1023" stop-color="#f5ec9b" offset="0.5"></stop><stop id="SvgjsStop1024" stop-color="#905e26" offset="1"></stop></linearGradient></defs><g id="SvgjsG1007" featureKey="symbolGroupContainer" transform="matrix(0.8716662328347028,0,0,0.8716662328347028,86,0)" fill="url(#SvgjsLinearGradient1013)"><path xmlns="http://www.w3.org/2000/svg" d="M102.174 199.588c53.8 0 97.413-43.613 97.413-97.413S155.974 4.762 102.174 4.762 4.761 48.375 4.761 102.175s43.614 97.413 97.413 97.413zm0-189.826c50.957 0 92.413 41.457 92.413 92.413s-41.456 92.413-92.413 92.413c-50.957 0-92.413-41.457-92.413-92.413S51.218 9.762 102.174 9.762z"></path><path xmlns="http://www.w3.org/2000/svg" d="M102.174 191.585c49.38 0 89.41-40.03 89.41-89.41s-40.03-89.41-89.41-89.41c-49.38 0-89.41 40.03-89.41 89.41s40.03 89.41 89.41 89.41zm0-176.82c48.198 0 87.41 39.212 87.41 87.41s-39.212 87.41-87.41 87.41c-48.198 0-87.41-39.212-87.41-87.41s39.212-87.41 87.41-87.41z"></path><path xmlns="http://www.w3.org/2000/svg" d="M102.174 204.35c56.339 0 102.174-45.835 102.174-102.175S158.513 0 102.174 0C45.835 0 0 45.835 0 102.175S45.835 204.35 102.174 204.35zm0-202.35c55.236 0 100.174 44.938 100.174 100.175S157.411 202.35 102.174 202.35C46.938 202.35 2 157.411 2 102.175S46.938 2 102.174 2z"></path></g><g id="SvgjsG1008" featureKey="symbolFeature-0" transform="matrix(0.13538460782967074,0,0,0.13538460782967074,120.94722814744384,32.049696385104596)" fill="url(#SvgjsLinearGradient1017)"><g xmlns="http://www.w3.org/2000/svg" transform="scale(6.666666666666667) translate(10, 10)"><g id="SvgjsG2091" transform="matrix(1.3198914809088507,0,0,1.3198914809088507,159.6645206398882,47.0962386790632)"><g><polygon points="-38.1,52.3 -46.1,52.3 -46.1,5.2 -83.3,-32 -120.5,5.2 -120.5,32 -63.3,32 -63.3,40 -128.5,40 -128.5,1.9      -83.3,-43.3 -38.1,1.9    "></polygon></g><g><polygon points="-50.9,52.3 -128.5,52.3 -128.5,44.3 -58.9,44.3 -58.9,10.2 -83.3,-14.2 -107.7,10.2 -107.7,27.6 -115.7,27.6      -115.7,6.9 -83.3,-25.5 -50.9,6.9    "></polygon></g></g></g></g><g id="SvgjsG1009" featureKey="nameFeature-0" transform="matrix(0.9900005524556654,0,0,0.9900005524556654,-3.6158223302579966,186.7271421468427)" fill="url(#SvgjsLinearGradient1021)"><path d="M15.390625 11.777344 c5.527344 0 8.964844 4.101563 8.964844 9.121094 c0 5.136719 -3.4375 8.984375 -8.964844 8.984375 l-5.878906 0 l0 10.117188 l-5.859375 0 l0 -28.222656 l11.738281 0 z M14.414063 24.980469 c2.929688 0 4.296875 -1.621094 4.296875 -4.160156 c0 -2.441406 -1.367187 -4.140625 -4.296875 -4.140625 l-4.902344 0 l0 8.300781 l4.902344 0 z M48.164063 40 l-2.050781 -5.820312 l-11.855469 0 l-2.050781 5.820313 l-5.996094 0 l10.390625 -28.222656 l7.167969 0 l10.390625 28.222656 l-5.996094 0 z M35.976563 29.277344 l8.417969 0 l-4.199219 -11.972656 z M73.300782 40 l-7.34375 -12.421875 l-1.699219 0 l0 12.421875 l-5.859375 0 l0 -28.222656 l10.234375 0 c6.386719 0 9.082031 3.769531 9.082031 8.4375 c0 3.789063 -2.148437 6.25 -5.976562 7.070313 l8.496094 12.714844 l-6.933594 0 z M64.257813 16.640625 l0 6.738281 l3.457031 0 c3.125 0 4.394531 -1.328125 4.394531 -3.359375 c0 -2.011719 -1.269531 -3.378906 -4.394531 -3.378906 l-3.457031 0 z M103.417969 40 l-2.050781 -5.820312 l-11.855469 0 l-2.050781 5.820313 l-5.996094 0 l10.390625 -28.222656 l7.167969 0 l10.390625 28.222656 l-5.996094 0 z M91.230469 29.277344 l8.417969 0 l-4.199219 -11.972656 z M125.859375 40.390625 c-8.144531 0 -14.140625 -5.625 -14.140625 -14.433594 c0 -8.925781 6.132813 -14.570312 14.433594 -14.570312 c5.449219 0 9.960938 2.402344 12.421875 6.640625 l-5.136719 2.734375 c-1.484375 -2.890625 -4.140625 -4.277344 -7.285156 -4.277344 c-4.882812 0 -8.554687 3.359375 -8.554687 9.335938 c0 5.761719 3.4375 9.472656 8.769531 9.472656 c3.613281 0 6.933594 -1.796875 7.734375 -5.917969 l-7.714844 0 l0 -4.707031 l13.261719 0 l0 15.332031 l-4.609375 0 l0 -3.90625 c-1.816406 2.675781 -4.863281 4.296875 -9.179687 4.296875 z M158.222657 40.390625 c-8.300781 0 -14.433594 -5.664062 -14.433594 -14.511719 c0 -8.867187 6.132813 -14.492187 14.433594 -14.492187 c8.28125 0 14.414063 5.625 14.414063 14.492188 c0 8.847656 -6.132812 14.511719 -14.414062 14.511719 z M158.222657 35.019531 c4.863281 0 8.59375 -3.417969 8.59375 -9.140625 c0 -5.703125 -3.730469 -9.101562 -8.59375 -9.101562 s-8.59375 3.398438 -8.59375 9.101563 c0 5.722656 3.730469 9.140625 8.59375 9.140625 z M197.304688 11.777344 l5.839844 0 l0 28.222656 l-6.777344 0 l-12.5 -20.175781 l0 20.175781 l-5.839844 0 l0 -28.222656 l6.699219 0 l12.578125 20.058594 l0 -20.058594 z M220.839844 40 l0 -28.222656 l10.214844 0 c9.003906 0 13.457031 5.664063 13.457031 14.101563 c0 8.457031 -4.453125 14.121094 -13.457031 14.121094 l-10.214844 0 z M226.699219 34.824219 l4.0625 0 c5.195313 0 7.578125 -3.242187 7.578125 -8.945312 s-2.382812 -8.945312 -7.578125 -8.945312 l-4.0625 0 l0 17.890625 z M266.367187 16.933594 l-10.46875 0 l0 6.40625 l9.277344 0 l0 5.097656 l-9.277344 0 l0 6.386719 l10.46875 0 l0 5.175781 l-16.367187 0 l0 -28.222656 l16.367188 0 l0 5.15625 z M284.902344 40.390625 c-8.300781 0 -14.433594 -5.644531 -14.433594 -14.511719 s6.132813 -14.492187 14.433594 -14.492187 c6.289063 0 11.328125 3.222656 13.339844 8.574219 l-5.46875 1.992188 c-1.25 -3.28125 -4.238281 -5.175781 -7.871094 -5.175781 c-4.863281 0 -8.59375 3.398438 -8.59375 9.101563 s3.730469 9.121094 8.59375 9.121094 c3.632813 0 6.621094 -1.914062 7.871094 -5.195312 l5.46875 1.992188 c-2.011719 5.351563 -7.050781 8.59375 -13.339844 8.59375 z M315.546875 40.390625 c-8.300781 0 -14.433594 -5.664062 -14.433594 -14.511719 c0 -8.867187 6.132813 -14.492187 14.433594 -14.492187 c8.28125 0 14.414063 5.625 14.414063 14.492188 c0 8.847656 -6.132812 14.511719 -14.414062 14.511719 z M315.546875 35.019531 c4.863281 0 8.59375 -3.417969 8.59375 -9.140625 c0 -5.703125 -3.730469 -9.101562 -8.59375 -9.101562 s-8.59375 3.398438 -8.59375 9.101563 c0 5.722656 3.730469 9.140625 8.59375 9.140625 z M350.253907 40 l-7.34375 -12.421875 l-1.699219 0 l0 12.421875 l-5.859375 0 l0 -28.222656 l10.234375 0 c6.386719 0 9.082031 3.769531 9.082031 8.4375 c0 3.789063 -2.148437 6.25 -5.976562 7.070313 l8.496094 12.714844 l-6.933594 0 z M341.210938 16.640625 l0 6.738281 l3.457031 0 c3.125 0 4.394531 -1.328125 4.394531 -3.359375 c0 -2.011719 -1.269531 -3.378906 -4.394531 -3.378906 l-3.457031 0 z"></path></g>
			</g>
		</svg>
	